<svg width="38" height="36" viewBox="0 0 38 36" fill="none" xmlns="http://www.w3.org/2000/svg">
<path fill-rule="evenodd" clip-rule="evenodd" d="M14.1866 8.7559C12.009 9.14574 10.4225 11.0565 10.1627 13.3297L8.23694 30.2659H29.4432L27.5134 13.3064C27.2563 11.0442 25.6844 9.13751 23.5187 8.74492C20.2715 8.15604 17.565 8.15054 14.1866 8.7559ZM15.8314 14.6832C15.8662 14.3265 15.765 13.97 15.5493 13.6897C15.3336 13.4094 15.0206 13.2276 14.6772 13.1831C14.3337 13.1386 13.9872 13.2351 13.7115 13.4517C13.4358 13.6684 13.2529 13.9882 13.2019 14.3427L12.0024 24.2782C11.9763 24.4592 11.9855 24.6438 12.0293 24.8211C12.0731 24.9984 12.1507 25.1648 12.2575 25.3106C12.3643 25.4563 12.4982 25.5785 12.6513 25.6699C12.8044 25.7613 12.9736 25.8201 13.1489 25.8428C13.3242 25.8655 13.5022 25.8516 13.6722 25.8021C13.8423 25.7525 14.0011 25.6682 14.1393 25.5542C14.2775 25.4401 14.3923 25.2986 14.4769 25.138C14.5615 24.9773 14.6142 24.8007 14.632 24.6187L15.8314 14.6832Z" fill="white"/>
<path fill-rule="evenodd" clip-rule="evenodd" d="M16.8176 11.154C17.4037 11.5849 17.866 12.1723 18.1554 12.8537C18.4448 13.5351 18.5504 14.285 18.4611 15.0236L17.2629 24.9591C17.1383 25.9886 16.6586 26.8809 15.9641 27.5205H26.4612L24.8813 13.6276C24.7461 12.4333 23.9482 11.6097 23.0629 11.4491C20.8481 11.0483 18.9409 10.9453 16.8176 11.154ZM27.5134 13.3064C27.2563 11.0442 25.6844 9.13751 23.5187 8.74492C20.2715 8.15604 17.565 8.15054 14.1866 8.7559C12.009 9.14574 10.4225 11.0565 10.1627 13.3297L8.23694 30.2659H29.4432L27.5134 13.3064ZM15.8314 14.6832L14.632 24.6187C14.6142 24.8007 14.5615 24.9773 14.4769 25.138C14.3923 25.2986 14.2775 25.4401 14.1393 25.5542C14.0011 25.6682 13.8423 25.7525 13.6722 25.8021C13.5022 25.8516 13.3242 25.8655 13.1489 25.8428C12.9736 25.8201 12.8044 25.7613 12.6513 25.6699C12.4982 25.5785 12.3643 25.4563 12.2575 25.3106C12.1507 25.1648 12.0731 24.9984 12.0293 24.8211C11.9855 24.6438 11.9763 24.4592 12.0024 24.2782L13.2019 14.3427C13.2196 14.1607 13.2724 13.9841 13.357 13.8235C13.4416 13.6628 13.5564 13.5213 13.6946 13.4072C13.8328 13.2932 13.9916 13.2089 14.1616 13.1593C14.3317 13.1098 14.5097 13.0959 14.685 13.1186C14.8603 13.1413 15.0295 13.2001 15.1826 13.2915C15.3357 13.3829 15.4695 13.5051 15.5764 13.6508C15.6832 13.7966 15.7608 13.963 15.8046 14.1403C15.8484 14.3176 15.8575 14.5022 15.8314 14.6832ZM30.7687 35.7567H6.91162V33.0113H30.7687V35.7567Z" fill="white"/>
<path d="M4.26084 19.2844C4.26084 19.747 4.28073 20.2041 4.32049 20.6571H0.284668V17.9117H4.32049C4.28073 18.3647 4.26084 18.8218 4.26084 19.2844ZM6.92753 10.5761C6.41636 11.3251 5.97228 12.1209 5.60082 12.9536L2.10841 10.8643L3.4338 8.48685L6.92753 10.5761ZM12.7261 5.57126C11.919 5.95973 11.1516 6.42096 10.4332 6.9467L8.41462 3.32829L10.7102 1.95561L12.7261 5.57126ZM18.8402 4.18485C18.3935 4.18485 17.9521 4.20544 17.5148 4.24662V0.0667877H20.1656V4.24662C19.7249 4.20553 19.2826 4.18492 18.8402 4.18485ZM27.2484 6.9467C26.5252 6.41734 25.7568 5.95742 24.9529 5.57264L26.9701 1.95561L29.2657 3.32829L27.2484 6.9467ZM32.0808 12.9522C31.7088 12.1204 31.2643 11.3256 30.7528 10.5775L34.2465 8.48685L35.5719 10.8643L32.0795 12.9522H32.0808ZM33.4195 19.2844C33.4195 18.8218 33.3996 18.3647 33.3598 17.9117H37.3956V20.6571H33.3598C33.3996 20.2041 33.4195 19.747 33.4195 19.2844Z" fill="white"/>
</svg>
