<svg width="38" height="38" viewBox="0 0 38 38" fill="none" xmlns="http://www.w3.org/2000/svg">
<path fill-rule="evenodd" clip-rule="evenodd" d="M2.11111 0C1.55121 0 1.01424 0.22242 0.61833 0.61833C0.22242 1.01424 0 1.55121 0 2.11111V8.44444C0 9.00435 0.22242 9.54132 0.61833 9.93723C1.01424 10.3331 1.55121 10.5556 2.11111 10.5556H8.44444C9.00435 10.5556 9.54132 10.3331 9.93723 9.93723C10.3331 9.54132 10.5556 9.00435 10.5556 8.44444V2.11111C10.5556 1.55121 10.3331 1.01424 9.93723 0.61833C9.54132 0.22242 9.00435 0 8.44444 0H2.11111ZM2.11111 13.7222C1.55121 13.7222 1.01424 13.9446 0.61833 14.3406C0.22242 14.7365 0 15.2734 0 15.8333V22.1667C0 22.7266 0.22242 23.2635 0.61833 23.6594C1.01424 24.0554 1.55121 24.2778 2.11111 24.2778H8.44444C9.00435 24.2778 9.54132 24.0554 9.93723 23.6594C10.3331 23.2635 10.5556 22.7266 10.5556 22.1667V15.8333C10.5556 15.2734 10.3331 14.7365 9.93723 14.3406C9.54132 13.9446 9.00435 13.7222 8.44444 13.7222H2.11111ZM2.11111 27.4444C1.55121 27.4444 1.01424 27.6669 0.61833 28.0628C0.22242 28.4587 0 28.9957 0 29.5556V35.8889C0 36.4488 0.22242 36.9858 0.61833 37.3817C1.01424 37.7776 1.55121 38 2.11111 38H8.44444C9.00435 38 9.54132 37.7776 9.93723 37.3817C10.3331 36.9858 10.5556 36.4488 10.5556 35.8889V29.5556C10.5556 28.9957 10.3331 28.4587 9.93723 28.0628C9.54132 27.6669 9.00435 27.4444 8.44444 27.4444H2.11111ZM15.8333 0C15.2734 0 14.7365 0.22242 14.3406 0.61833C13.9446 1.01424 13.7222 1.55121 13.7222 2.11111V8.44444C13.7222 9.00435 13.9446 9.54132 14.3406 9.93723C14.7365 10.3331 15.2734 10.5556 15.8333 10.5556H22.1667C22.7266 10.5556 23.2635 10.3331 23.6594 9.93723C24.0554 9.54132 24.2778 9.00435 24.2778 8.44444V2.11111C24.2778 1.55121 24.0554 1.01424 23.6594 0.61833C23.2635 0.22242 22.7266 0 22.1667 0H15.8333ZM15.8333 13.7222C15.2734 13.7222 14.7365 13.9446 14.3406 14.3406C13.9446 14.7365 13.7222 15.2734 13.7222 15.8333V22.1667C13.7222 22.7266 13.9446 23.2635 14.3406 23.6594C14.7365 24.0554 15.2734 24.2778 15.8333 24.2778H22.1667C22.7266 24.2778 23.2635 24.0554 23.6594 23.6594C24.0554 23.2635 24.2778 22.7266 24.2778 22.1667V15.8333C24.2778 15.2734 24.0554 14.7365 23.6594 14.3406C23.2635 13.9446 22.7266 13.7222 22.1667 13.7222H15.8333ZM15.8333 27.4444C15.2734 27.4444 14.7365 27.6669 14.3406 28.0628C13.9446 28.4587 13.7222 28.9957 13.7222 29.5556V35.8889C13.7222 36.4488 13.9446 36.9858 14.3406 37.3817C14.7365 37.7776 15.2734 38 15.8333 38H22.1667C22.7266 38 23.2635 37.7776 23.6594 37.3817C24.0554 36.9858 24.2778 36.4488 24.2778 35.8889V29.5556C24.2778 28.9957 24.0554 28.4587 23.6594 28.0628C23.2635 27.6669 22.7266 27.4444 22.1667 27.4444H15.8333ZM29.5556 0C28.9957 0 28.4587 0.22242 28.0628 0.61833C27.6669 1.01424 27.4444 1.55121 27.4444 2.11111V8.44444C27.4444 9.00435 27.6669 9.54132 28.0628 9.93723C28.4587 10.3331 28.9957 10.5556 29.5556 10.5556H35.8889C36.4488 10.5556 36.9858 10.3331 37.3817 9.93723C37.7776 9.54132 38 9.00435 38 8.44444V2.11111C38 1.55121 37.7776 1.01424 37.3817 0.61833C36.9858 0.22242 36.4488 0 35.8889 0H29.5556ZM29.5556 13.7222C28.9957 13.7222 28.4587 13.9446 28.0628 14.3406C27.6669 14.7365 27.4444 15.2734 27.4444 15.8333V22.1667C27.4444 22.7266 27.6669 23.2635 28.0628 23.6594C28.4587 24.0554 28.9957 24.2778 29.5556 24.2778H35.8889C36.4488 24.2778 36.9858 24.0554 37.3817 23.6594C37.7776 23.2635 38 22.7266 38 22.1667V15.8333C38 15.2734 37.7776 14.7365 37.3817 14.3406C36.9858 13.9446 36.4488 13.7222 35.8889 13.7222H29.5556ZM29.5556 27.4444C28.9957 27.4444 28.4587 27.6669 28.0628 28.0628C27.6669 28.4587 27.4444 28.9957 27.4444 29.5556V35.8889C27.4444 36.4488 27.6669 36.9858 28.0628 37.3817C28.4587 37.7776 28.9957 38 29.5556 38H35.8889C36.4488 38 36.9858 37.7776 37.3817 37.3817C37.7776 36.9858 38 36.4488 38 35.8889V29.5556C38 28.9957 37.7776 28.4587 37.3817 28.0628C36.9858 27.6669 36.4488 27.4444 35.8889 27.4444H29.5556Z" fill="url(#paint0_linear_67_441)"/>
<defs>
<linearGradient id="paint0_linear_67_441" x1="-4.22222" y1="4.54393e-07" x2="45.9167" y2="42.2222" gradientUnits="userSpaceOnUse">
<stop stop-color="#00CBA9"/>
<stop offset="0.556159" stop-color="#4ECB71" stop-opacity="0.84"/>
</linearGradient>
</defs>
</svg>
